<svg width="686" height="686" viewBox="0 0 686 686" fill="none" xmlns="http://www.w3.org/2000/svg">
    <circle cx="343" cy="339" r="250" fill="#202020"/>
    <g filter="url(#filter0_b)">
        <rect x="13.3598" y="466.631" width="500" height="500" rx="250" transform="rotate(-66.139 13.3598 466.631)"
              fill="url(#paint0_linear)"/>
    </g>
    <g filter="url(#filter1_bd)">
        <rect x="681.884" y="238.351" width="500" height="500" rx="250" transform="rotate(118.47 681.884 238.351)"
              fill="url(#paint1_linear)" fill-opacity="0.5"/>
    </g>
    <g filter="url(#filter2_dii)">
        <path d="M438.941 287.741C435.819 288.912 433.75 291.897 433.75 295.232V327.981C433.75 331.316 431.681 334.301 428.559 335.472L409.559 342.597C404.329 344.558 398.75 340.692 398.75 335.106V314.359C398.75 308.772 393.17 304.906 387.94 306.869L360.19 317.28C357.068 318.452 355 321.436 355 324.77V465.183C355 470.769 360.579 474.635 365.809 472.673L481.059 429.447C484.182 428.276 486.25 425.291 486.25 421.956V281.544C486.25 275.958 480.671 272.092 475.441 274.053L438.941 287.741Z"
              fill="url(#paint2_linear)"/>
    </g>
    <g filter="url(#filter3_dii)">
        <path d="M217.809 274.054C212.579 272.093 207 275.959 207 281.545V421.956C207 425.291 209.068 428.276 212.191 429.447L327.441 472.673C332.671 474.635 338.25 470.769 338.25 465.183V324.771C338.25 321.437 336.182 318.452 333.059 317.281L217.809 274.054ZM277 416.534C277 422.119 271.421 425.985 266.191 424.024L247.191 416.899C244.069 415.728 242 412.743 242 409.409V407.824C242 402.238 247.579 398.372 252.809 400.333L271.809 407.458C274.931 408.629 277 411.614 277 414.949V416.534Z"
              fill="url(#paint3_linear)"/>
    </g>
    <g filter="url(#filter4_dii)">
        <path d="M376.247 250.356C377.484 249.775 378.904 249.726 380.177 250.22L432.618 270.534C433.763 270.977 435.03 270.984 436.179 270.553L474.514 256.181C478.84 254.559 478.84 248.44 474.514 246.818L348.756 199.658C347.624 199.234 346.376 199.234 345.244 199.658L219.484 246.818C215.159 248.441 215.159 254.559 219.484 256.182L345.244 303.342C346.376 303.766 347.624 303.766 348.756 303.341L388.222 288.538C392.375 286.981 392.594 281.19 388.572 279.322L354.784 263.632C354.596 263.545 354.425 263.425 354.279 263.279V263.279C353.413 262.413 353.669 260.951 354.777 260.431L376.247 250.356Z"
              fill="url(#paint4_linear)"/>
    </g>
    <defs>
        <filter id="filter0_b" x="-36.6402" y="-40.6337" width="759.524" height="759.525"
                color-interpolation-filters="sRGB">
            <feFlood flood-opacity="0" result="BackgroundImageFix"/>
            <feGaussianBlur in="BackgroundImage" stdDeviation="25"/>
            <feComposite in2="SourceAlpha" operator="in" result="effect1_backgroundBlur"/>
            <feBlend in="SourceGraphic" in2="effect1_backgroundBlur" result="shape"/>
        </filter>
        <filter id="filter1_bd" x="-46.0001" y="-50" width="777.884" height="777.884"
                color-interpolation-filters="sRGB">
            <feFlood flood-opacity="0" result="BackgroundImageFix"/>
            <feGaussianBlur in="BackgroundImage" stdDeviation="25"/>
            <feComposite in2="SourceAlpha" operator="in" result="effect1_backgroundBlur"/>
            <feColorMatrix in="SourceAlpha" values="0 0 0 0 0 0 0 0 0 0 0 0 0 0 0 0 0 0 127 0"/>
            <feOffset dy="4"/>
            <feGaussianBlur stdDeviation="2"/>
            <feColorMatrix values="0 0 0 0 0 0 0 0 0 0 0 0 0 0 0 0 0 0 0.25 0"/>
            <feBlend in2="effect1_backgroundBlur" result="effect2_dropShadow"/>
            <feBlend in="SourceGraphic" in2="effect2_dropShadow" result="shape"/>
        </filter>
        <filter id="filter2_dii" x="302.601" y="249.777" width="221.377" height="289.781" filterUnits="userSpaceOnUse"
                color-interpolation-filters="sRGB">
            <feFlood flood-opacity="0" result="BackgroundImageFix"/>
            <feColorMatrix in="SourceAlpha" values="0 0 0 0 0 0 0 0 0 0 0 0 0 0 0 0 0 0 127 0"/>
            <feOffset dx="-7.33565" dy="21.3043"/>
            <feGaussianBlur stdDeviation="22.5318"/>
            <feColorMatrix values="0 0 0 0 0.2 0 0 0 0 0.2 0 0 0 0 0.2 0 0 0 0.527 0"/>
            <feBlend in2="BackgroundImageFix" result="effect1_dropShadow"/>
            <feBlend in="SourceGraphic" in2="effect1_dropShadow" result="shape"/>
            <feColorMatrix in="SourceAlpha" values="0 0 0 0 0 0 0 0 0 0 0 0 0 0 0 0 0 0 127 0"
                           result="hardAlpha"/>
            <feOffset dx="-3.61892" dy="10.5101"/>
            <feGaussianBlur stdDeviation="5.55785"/>
            <feComposite in2="hardAlpha" operator="arithmetic" k2="-1" k3="1"/>
            <feColorMatrix values="0 0 0 0 1 0 0 0 0 1 0 0 0 0 1 0 0 0 1 0"/>
            <feBlend in2="shape" result="effect2_innerShadow"/>
            <feColorMatrix in="SourceAlpha" values="0 0 0 0 0 0 0 0 0 0 0 0 0 0 0 0 0 0 127 0"
                           result="hardAlpha"/>
            <feOffset dx="3.61892" dy="-10.5101"/>
            <feGaussianBlur stdDeviation="5.55785"/>
            <feComposite in2="hardAlpha" operator="arithmetic" k2="-1" k3="1"/>
            <feColorMatrix values="0 0 0 0 0.595 0 0 0 0 0.595 0 0 0 0 0.595 0 0 0 1 0"/>
            <feBlend in2="effect2_innerShadow" result="effect3_innerShadow"/>
        </filter>
        <filter id="filter3_dii" x="140" y="237.586" width="241.37" height="309.773" filterUnits="userSpaceOnUse"
                color-interpolation-filters="sRGB">
            <feFlood flood-opacity="0" result="BackgroundImageFix"/>
            <feColorMatrix in="SourceAlpha" values="0 0 0 0 0 0 0 0 0 0 0 0 0 0 0 0 0 0 127 0"/>
            <feOffset dx="-11.9401" dy="19.1081"/>
            <feGaussianBlur stdDeviation="27.53"/>
            <feColorMatrix values="0 0 0 0 0.2 0 0 0 0 0.2 0 0 0 0 0.2 0 0 0 0.604 0"/>
            <feBlend in2="BackgroundImageFix" result="effect1_dropShadow"/>
            <feBlend in="SourceGraphic" in2="effect1_dropShadow" result="shape"/>
            <feColorMatrix in="SourceAlpha" values="0 0 0 0 0 0 0 0 0 0 0 0 0 0 0 0 0 0 127 0"
                           result="hardAlpha"/>
            <feOffset dx="-6.47416" dy="10.3608"/>
            <feGaussianBlur stdDeviation="6.10863"/>
            <feComposite in2="hardAlpha" operator="arithmetic" k2="-1" k3="1"/>
            <feColorMatrix values="0 0 0 0 1 0 0 0 0 1 0 0 0 0 1 0 0 0 1 0"/>
            <feBlend in2="shape" result="effect2_innerShadow"/>
            <feColorMatrix in="SourceAlpha" values="0 0 0 0 0 0 0 0 0 0 0 0 0 0 0 0 0 0 127 0"
                           result="hardAlpha"/>
            <feOffset dx="6.47416" dy="-10.3608"/>
            <feGaussianBlur stdDeviation="6.10863"/>
            <feComposite in2="hardAlpha" operator="arithmetic" k2="-1" k3="1"/>
            <feColorMatrix values="0 0 0 0 0.54 0 0 0 0 0.54 0 0 0 0 0.54 0 0 0 1 0"/>
            <feBlend in2="effect2_innerShadow" result="effect3_innerShadow"/>
        </filter>
        <filter id="filter4_dii" x="153.655" y="171.076" width="364.185" height="206.987" filterUnits="userSpaceOnUse"
                color-interpolation-filters="sRGB">
            <feFlood flood-opacity="0" result="BackgroundImageFix"/>
            <feColorMatrix in="SourceAlpha" values="0 0 0 0 0 0 0 0 0 0 0 0 0 0 0 0 0 0 127 0"/>
            <feOffset dx="-11.2515" dy="23.069"/>
            <feGaussianBlur stdDeviation="25.6667"/>
            <feColorMatrix values="0 0 0 0 0.2 0 0 0 0 0.2 0 0 0 0 0.2 0 0 0 0.415 0"/>
            <feBlend in2="BackgroundImageFix" result="effect1_dropShadow"/>
            <feBlend in="SourceGraphic" in2="effect1_dropShadow" result="shape"/>
            <feColorMatrix in="SourceAlpha" values="0 0 0 0 0 0 0 0 0 0 0 0 0 0 0 0 0 0 127 0"
                           result="hardAlpha"/>
            <feOffset dx="-4.75064" dy="9.74026"/>
            <feGaussianBlur stdDeviation="5.41852"/>
            <feComposite in2="hardAlpha" operator="arithmetic" k2="-1" k3="1"/>
            <feColorMatrix values="0 0 0 0 1 0 0 0 0 1 0 0 0 0 1 0 0 0 1 0"/>
            <feBlend in2="shape" result="effect2_innerShadow"/>
            <feColorMatrix in="SourceAlpha" values="0 0 0 0 0 0 0 0 0 0 0 0 0 0 0 0 0 0 127 0"
                           result="hardAlpha"/>
            <feOffset dx="4.75064" dy="-9.74026"/>
            <feGaussianBlur stdDeviation="5.41852"/>
            <feComposite in2="hardAlpha" operator="arithmetic" k2="-1" k3="1"/>
            <feColorMatrix values="0 0 0 0 0.675 0 0 0 0 0.675 0 0 0 0 0.675 0 0 0 1 0"/>
            <feBlend in2="effect2_innerShadow" result="effect3_innerShadow"/>
        </filter>
        <linearGradient id="paint0_linear" x1="263.36" y1="466.631" x2="263.36" y2="966.631"
                        gradientUnits="userSpaceOnUse">
            <stop stop-color="#00A3FF"/>
            <stop offset="1" stop-color="#00A3FF" stop-opacity="0"/>
        </linearGradient>
        <linearGradient id="paint1_linear" x1="931.883" y1="238.351" x2="927.23" y2="757.535"
                        gradientUnits="userSpaceOnUse">
            <stop stop-color="#FF0F00"/>
            <stop offset="1" stop-color="#202020" stop-opacity="0"/>
        </linearGradient>
        <linearGradient id="paint2_linear" x1="430.961" y1="240.015" x2="339.335" y2="408.962"
                        gradientUnits="userSpaceOnUse">
            <stop stop-color="white"/>
            <stop offset="1" stop-color="#ACACAC"/>
        </linearGradient>
        <linearGradient id="paint3_linear" x1="299.51" y1="231.872" x2="177.641" y2="355.696"
                        gradientUnits="userSpaceOnUse">
            <stop stop-color="white"/>
            <stop offset="1" stop-color="#A1A1A1"/>
        </linearGradient>
        <linearGradient id="paint4_linear" x1="386.639" y1="180.644" x2="365.963" y2="293.686"
                        gradientUnits="userSpaceOnUse">
            <stop stop-color="white"/>
            <stop offset="1" stop-color="#BDBDBD"/>
        </linearGradient>
    </defs>
</svg>
